<svg id="Icono_eliminar" data-name="Icono eliminar" xmlns="http://www.w3.org/2000/svg" width="37.454" height="30" viewBox="0 0 37.454 30">
  <path id="Sustracción_1" data-name="Sustracción 1" d="M-222.546,3397H-250a5.005,5.005,0,0,1-5-5v-20a5.006,5.006,0,0,1,5-5h27.455a5.006,5.006,0,0,1,5,5v20A5.006,5.006,0,0,1-222.546,3397Zm-19.95-21.145v14a2.336,2.336,0,0,0,2.334,2.333h9.333a2.336,2.336,0,0,0,2.334-2.333v-14Zm-1.166-3.5v2.333h16.333v-2.333h-4.083l-1.166-1.167h-5.834l-1.166,1.167h-4.083Z" transform="translate(255 -3367)" fill="#666"/>
</svg>
